<svg xmlns="http://www.w3.org/2000/svg" width="1364" height="421" viewBox="0 0 1364 421"><rect width="100%" height="100%" fill="#DDDDDD"/><path fill="#999999" d="M333.68 253.54h20.8v14.8h-64v-14.8h23.44V186.1q0-4 .24-8.24l-16.64 13.92q-1.44 1.12-2.84 1.4-1.4.28-2.64.04-1.24-.24-2.2-.84-.96-.6-1.44-1.32l-6.24-8.56 35.28-30h16.24v101.04Zm49.84-66.8-10.4-1.84q1.2-8.32 4.64-14.6 3.44-6.28 8.6-10.48t11.84-6.32q6.68-2.12 14.36-2.12 8 0 14.44 2.28 6.44 2.28 11 6.32 4.56 4.04 7 9.48 2.44 5.44 2.44 11.76 0 5.52-1.24 9.72-1.24 4.2-3.56 7.32-2.32 3.12-5.76 5.28t-7.76 3.6q10.4 3.28 15.52 10 5.12 6.72 5.12 16.88 0 8.64-3.2 15.28-3.2 6.64-8.64 11.16-5.44 4.52-12.6 6.84-7.16 2.32-15.16 2.32-8.72 0-15.2-2-6.48-2-11.28-5.92-4.8-3.92-8.16-9.6-3.36-5.68-5.76-13.12l8.72-3.6q3.44-1.44 6.44-.76 3 .68 4.36 3.24 1.44 2.8 3.16 5.52 1.72 2.72 4.12 4.84 2.4 2.12 5.64 3.44 3.24 1.32 7.72 1.32 5.04 0 8.8-1.64 3.76-1.64 6.28-4.28 2.52-2.64 3.76-5.88 1.24-3.24 1.24-6.52 0-4.16-.88-7.56-.88-3.4-3.68-5.8-2.8-2.4-8.04-3.76-5.24-1.36-14.04-1.36V202.1q7.28-.08 12.08-1.36t7.64-3.56q2.84-2.28 3.96-5.48 1.12-3.2 1.12-7.04 0-8.16-4.56-12.4t-12.16-4.24q-3.52 0-6.48 1-2.96 1-5.32 2.8-2.36 1.8-3.96 4.2-1.6 2.4-2.4 5.28-1.36 3.68-3.56 4.88-2.2 1.2-6.2.56Zm149.84-34.08-34.32 42-4 4.96q3.36-1.68 7.24-2.6 3.88-.92 8.36-.92 6.56 0 12.76 2.16t10.92 6.52q4.72 4.36 7.6 10.84 2.88 6.48 2.88 15.12 0 8.08-2.96 15.16t-8.32 12.36q-5.36 5.28-12.92 8.32t-16.68 3.04q-9.28 0-16.64-2.96-7.36-2.96-12.56-8.28-5.2-5.32-7.96-12.8t-2.76-16.6q0-8.16 3.32-16.76 3.32-8.6 10.28-17.88l27.6-37.04q1.44-1.92 4.2-3.28 2.76-1.36 6.36-1.36h17.6Zm-29.84 100.8q4.72 0 8.68-1.6t6.8-4.48q2.84-2.88 4.44-6.76 1.6-3.88 1.6-8.44 0-4.96-1.52-8.92t-4.32-6.72q-2.8-2.76-6.72-4.2-3.92-1.44-8.64-1.44-4.72 0-8.56 1.6-3.84 1.6-6.56 4.44-2.72 2.84-4.24 6.72t-1.52 8.36q0 4.8 1.32 8.76t3.92 6.76q2.6 2.8 6.44 4.36 3.84 1.56 8.88 1.56Zm68.32-28.72h35.2V186.9q0-5.36.72-11.84l-35.92 49.68Zm52.4 0h14.56v11.44q0 1.6-1.04 2.76-1.04 1.16-2.96 1.16h-10.56v28.24h-17.2V240.1h-48.8q-2 0-3.52-1.24t-1.92-3.08l-2.08-10 54.8-73.2h18.72v72.16Zm141.68 17.12-10.48 10.32-27.12-27.12-27.36 27.28-10.48-10.32 27.36-27.44-26.08-26.08 10.4-10.4 26.08 26.08 25.92-25.92 10.56 10.4-26 26 27.2 27.2Zm69.28-17.12h35.2V186.9q0-5.36.72-11.84l-35.92 49.68Zm52.4 0h14.56v11.44q0 1.6-1.04 2.76-1.04 1.16-2.96 1.16H887.6v28.24h-17.2V240.1h-48.8q-2 0-3.52-1.24t-1.92-3.08l-2.08-10 54.8-73.2h18.72v72.16Zm67.44 25.2h29.68q3.2 0 5.08 1.8t1.88 4.76v11.84h-79.36v-6.56q0-2 .84-4.2t2.68-3.96l35.12-35.2q4.4-4.48 7.88-8.56 3.48-4.08 5.8-8.08t3.56-8.12q1.24-4.12 1.24-8.68 0-4.16-1.2-7.32t-3.4-5.32q-2.2-2.16-5.28-3.24t-6.92-1.08q-3.52 0-6.52 1-3 1-5.32 2.8-2.32 1.8-3.92 4.2-1.6 2.4-2.4 5.28-1.36 3.68-3.52 4.88-2.16 1.2-6.24.56l-10.4-1.84q1.2-8.32 4.64-14.6 3.44-6.28 8.6-10.48t11.84-6.32q6.68-2.12 14.36-2.12 8 0 14.64 2.36 6.64 2.36 11.36 6.68t7.36 10.4q2.64 6.08 2.64 13.52 0 6.4-1.88 11.84-1.88 5.44-5.04 10.4t-7.4 9.6q-4.24 4.64-8.88 9.44l-26.08 26.64q3.76-1.12 7.48-1.72 3.72-.6 7.08-.6Zm106 3.6h20.8v14.8h-64v-14.8h23.44V186.1q0-4 .24-8.24l-16.64 13.92q-1.44 1.12-2.84 1.4-1.4.28-2.64.04-1.24-.24-2.2-.84-.96-.6-1.44-1.32l-6.24-8.56 35.28-30h16.24v101.04Z"/></svg>